<?xml version="1.0" encoding="UTF-8"?>
<svg version="1.1" xmlns="http://www.w3.org/2000/svg" width="500" height="500">
<path d="M0 0 C0.98169002 -0.00467997 1.96338003 -0.00935994 2.97481823 -0.01418173 C6.23180744 -0.0260531 9.48836973 -0.01670532 12.74536133 -0.00723267 C15.09364058 -0.01130185 17.44191792 -0.01664568 19.79019165 -0.02316284 C26.14549611 -0.03680083 32.50065393 -0.03155225 38.85596085 -0.02202559 C44.84237992 -0.01518361 50.82878578 -0.02041589 56.8152045 -0.02480717 C69.3941418 -0.03334535 81.97301333 -0.02355169 94.55193985 -0.00740607 C105.32640752 0.00599569 116.10077821 0.00366716 126.87524414 -0.01016235 C139.41164017 -0.02624603 151.94797867 -0.03252153 164.48438358 -0.02332556 C171.11162748 -0.0185955 177.73881744 -0.01800074 184.36605835 -0.02793503 C190.59763589 -0.03662434 196.82903093 -0.0305467 203.06058884 -0.01325226 C205.3425809 -0.00929794 207.62458841 -0.01040331 209.90657425 -0.01704025 C213.03118269 -0.0252875 216.15521313 -0.01489565 219.27978516 0 C220.17406817 -0.00669217 221.06835119 -0.01338433 221.9897337 -0.02027929 C237.60160905 0.12321827 251.63812043 6.7947494 263.63989258 16.38095093 C264.29860352 16.88626343 264.95731445 17.39157593 265.63598633 17.91220093 C270.36320169 21.70239588 274.41849932 26.24042977 277.63989258 31.38095093 C277.63989258 32.37095093 277.63989258 33.36095093 277.63989258 34.38095093 C278.29989258 34.38095093 278.95989258 34.38095093 279.63989258 34.38095093 C287.92130864 49.1691939 288.22174037 63.34216566 288.1574707 79.85531616 C288.16289937 82.20740185 288.17002619 84.55948414 288.17871094 86.91156006 C288.19685944 93.26492706 288.18991146 99.6180326 288.1771946 105.97140384 C288.16805509 111.96392707 288.17505415 117.95642706 288.18090338 123.9489497 C288.19227753 136.54187122 288.17924587 149.13467578 288.15770191 161.72757811 C288.13983793 172.50247511 288.14293536 183.27719963 288.16137695 194.05209351 C288.18284707 206.60211315 288.19117484 219.15203056 288.1789279 231.702066 C288.17263256 238.33164315 288.17179751 244.96112456 288.18507385 251.59069633 C288.19669065 257.82648193 288.18850034 264.06194422 288.16549683 270.29769516 C288.16024057 272.57639468 288.16167013 274.85512175 288.17054749 277.13381004 C288.25912468 302.19486053 282.93749543 319.65431068 265.20239258 338.13095093 C252.32201613 350.57396315 235.4288118 356.68432885 217.66300964 356.67288208 C216.2162561 356.68368738 216.2162561 356.68368738 214.7402752 356.69471097 C211.52995408 356.71628369 208.31975727 356.72393303 205.109375 356.73153687 C202.7992915 356.74411747 200.48921241 356.7575311 198.17913818 356.77171326 C191.92135622 356.80750524 185.66358486 356.83091721 179.40573668 356.85153103 C172.85593905 356.8746372 166.30618756 356.90728257 159.75642395 356.93838501 C148.05989235 356.99261397 136.36334179 357.03613379 124.6667541 357.07616416 C114.06114648 357.1127467 103.45562707 357.15980708 92.85009766 357.21444702 C80.52440991 357.27794496 68.19872135 357.3346626 55.872958 357.38143563 C49.3515321 357.40619743 42.830149 357.4337213 36.30876732 357.46834564 C30.1831935 357.50044137 24.05766177 357.52272648 17.93202209 357.53735161 C15.68093837 357.54434641 13.42986242 357.55479625 11.17881203 357.56890297 C8.11310375 357.58756025 5.04761496 357.59386658 1.9818573 357.59695435 C1.08527489 357.60530674 0.18869249 357.61365913 -0.73505908 357.62226462 C-1.55607095 357.62053252 -2.37708281 357.61880043 -3.22297382 357.61701584 C-3.93045051 357.6197289 -4.63792719 357.62244195 -5.36684257 357.62523723 C-7.71081198 357.33797003 -9.29239217 356.4946649 -11.36010742 355.38095093 C-13.1853447 354.93013931 -15.02003568 354.51677242 -16.86010742 354.13095093 C-29.6994956 351.00320716 -40.42224844 344.02443035 -49.36010742 334.38095093 C-49.90280273 333.80860718 -50.44549805 333.23626343 -51.00463867 332.64657593 C-69.91208102 312.0502335 -69.51839927 287.50027491 -69.48950195 261.20809937 C-69.49085981 259.11538665 -69.49264189 257.02267418 -69.49481201 254.92996216 C-69.4993395 249.28978982 -69.49761649 243.64963594 -69.49443293 238.00946331 C-69.49188633 232.08627463 -69.49425312 226.16308743 -69.49581909 220.23989868 C-69.49763353 210.30091063 -69.49525295 200.36193003 -69.49047852 190.42294312 C-69.4850313 178.95133104 -69.48680482 167.47973672 -69.49230492 156.00812507 C-69.49684959 146.13172242 -69.49748015 136.2553251 -69.49486625 126.37892175 C-69.49331171 120.49175491 -69.49308725 114.60459641 -69.49640274 108.71743011 C-69.49930135 103.18515952 -69.49726928 97.65291175 -69.49150848 92.12064362 C-69.4901918 90.09665464 -69.49055635 88.07266373 -69.49277115 86.04867554 C-69.51810063 60.54084692 -66.90627081 39.20014787 -48.24291992 20.13876343 C-35.06287117 7.5302073 -18.32637793 -0.13714131 0 0 Z M17.63989258 60.38095093 C16.71176758 61.22786499 16.71176758 61.22786499 15.76489258 62.09188843 C14.32612553 63.45738494 12.97249832 64.91166767 11.63989258 66.38095093 C11.63989258 67.04095093 11.63989258 67.70095093 11.63989258 68.38095093 C10.97989258 68.38095093 10.31989258 68.38095093 9.63989258 68.38095093 C2.94840365 81.17923558 2.48489972 92.96294554 2.51049805 107.25521851 C2.50874573 108.48133347 2.50699341 109.70744843 2.50518799 110.97071838 C2.50157027 114.29737738 2.50237726 117.62397322 2.50556707 120.95062852 C2.50812538 124.45895351 2.50574342 127.96727608 2.50418091 131.4756012 C2.50236853 137.36698889 2.50474023 143.25836398 2.50952148 149.14974976 C2.5149547 155.92185186 2.51320451 162.69392381 2.50769508 169.46602517 C2.50312818 175.31783579 2.50253099 181.16963744 2.50513375 187.02144927 C2.50667796 190.49987289 2.50694222 193.97828243 2.50359726 197.45670509 C0.67732627 226.22406767 0.67732627 226.22406767 11.95239258 251.25595093 C19.48833909 258.18706009 27.35006258 259.49995177 37.41940308 259.5146637 C38.38665131 259.51806203 38.38665131 259.51806203 39.37343991 259.52152902 C41.51419673 259.52781228 43.65488933 259.52704334 45.7956543 259.5262146 C47.33871542 259.52920961 48.8817758 259.53261293 50.42483521 259.53639221 C54.60258172 259.54520093 58.78030774 259.54756899 62.95806265 259.548208 C65.5714918 259.5489202 68.18491579 259.55105772 70.79834366 259.55370522 C79.92505472 259.5629478 89.05175121 259.5670414 98.1784668 259.56625366 C106.67118497 259.56565294 115.16383961 259.57620646 123.65654171 259.59199733 C130.96122468 259.60509283 138.26588694 259.61043673 145.57058156 259.60979825 C149.92751815 259.60954389 154.28439824 259.61236123 158.64132309 259.6229763 C162.7404338 259.63269134 166.83943434 259.63271322 170.93854904 259.62545967 C172.43767967 259.6244181 173.93681727 259.62675116 175.43593597 259.63282013 C187.82594555 259.67970687 198.5526513 259.29257915 207.84692383 250.22860718 C217.0746566 240.23605331 216.78997931 230.86151 216.76928711 217.78573608 C216.77064377 216.41016087 216.7724252 215.03458601 216.77459717 213.65901184 C216.77914081 209.93785724 216.77739436 206.21673049 216.77421808 202.49557543 C216.77167758 198.59069782 216.77403682 194.68582253 216.77560425 190.78094482 C216.77742144 184.22247899 216.77503188 177.66402443 216.77026367 171.1055603 C216.76482646 163.53989622 216.76658159 155.97425911 216.77209008 148.40859568 C216.77663945 141.89796202 216.7772627 135.38733645 216.77465141 128.87670171 C216.77309808 124.99485989 216.77286879 121.11303072 216.7761879 117.23118973 C216.77909299 113.57860373 216.77704275 109.92605223 216.77129364 106.27346992 C216.76935703 104.30598624 216.77229775 102.33849961 216.77542114 100.37101746 C216.76407742 86.94548911 216.76407742 86.94548911 212.57739258 74.31845093 C211.75561523 72.63042358 211.75561523 72.63042358 210.91723633 70.90829468 C210.49571289 70.07427124 210.07418945 69.2402478 209.63989258 68.38095093 C208.97989258 68.38095093 208.31989258 68.38095093 207.63989258 68.38095093 C206.64989258 65.90595093 206.64989258 65.90595093 205.63989258 63.38095093 C204.97989258 63.38095093 204.31989258 63.38095093 203.63989258 63.38095093 C203.63989258 62.72095093 203.63989258 62.06095093 203.63989258 61.38095093 C185.88171458 44.96369657 161.83486567 46.06915474 139.29614258 46.11532593 C136.95454875 46.11397533 134.61295519 46.11203152 132.2713623 46.10952759 C127.38652858 46.10659492 122.50176847 46.11081382 117.61694336 46.12020874 C111.3938638 46.13160204 105.17095685 46.12503256 98.94788361 46.11306381 C94.11939217 46.10579483 89.29094084 46.10815616 84.46244812 46.1133194 C82.16940795 46.11464199 79.87636399 46.11305764 77.58332825 46.10836029 C45.30668507 45.66654811 45.30668507 45.66654811 17.63989258 60.38095093 Z M35.63989258 275.38095093 C35.63989258 276.04095093 35.63989258 276.70095093 35.63989258 277.38095093 C34.97989258 277.38095093 34.31989258 277.38095093 33.63989258 277.38095093 C32.16888312 279.02777455 32.16888312 279.02777455 30.63989258 281.19345093 C27.00792264 286.01074997 23.03168546 290.41755136 18.95239258 294.85751343 C13.98794067 299.52988404 13.98794067 299.52988404 11.63989258 305.38095093 C10.97989258 305.38095093 10.31989258 305.38095093 9.63989258 305.38095093 C9.63989258 306.04095093 9.63989258 306.70095093 9.63989258 307.38095093 C8.97989258 307.38095093 8.31989258 307.38095093 7.63989258 307.38095093 C5.99522518 309.84421805 5.99522518 309.84421805 4.63989258 312.38095093 C18.69643136 313.95569154 18.69643136 313.95569154 31.87426758 310.55282593 C33.84647799 308.24426956 35.22603876 306.0596077 36.63989258 303.38095093 C39.80187937 298.57947325 39.80187937 298.57947325 43.30289841 297.75009441 C44.32424503 297.74732903 45.34559166 297.74456366 46.39788818 297.74171448 C47.57295425 297.726427 48.74802032 297.71113953 49.95869446 297.69538879 C51.24406601 297.70401443 52.52943756 297.71264008 53.85375977 297.7215271 C55.22380533 297.71307323 56.59383887 297.70242881 57.96385193 297.6897583 C61.68060604 297.66159255 65.39678345 297.66408671 69.11361217 297.67205215 C72.99878151 297.67517535 76.88376655 297.65014841 80.76885986 297.62809753 C88.12465602 297.59063005 95.4802673 297.57850796 102.83614945 297.57547313 C111.21102088 297.57078521 119.58570677 297.53787054 127.96049643 297.50257528 C145.18694815 297.43060788 162.41329765 297.39411878 179.63989258 297.38095093 C180.63989258 299.38095093 181.63989258 301.38095093 182.63989258 303.38095093 C183.29989258 303.38095093 183.95989258 303.38095093 184.63989258 303.38095093 C185.01114258 304.21626343 185.01114258 304.21626343 185.38989258 305.06845093 C186.00864258 306.21313843 186.00864258 306.21313843 186.63989258 307.38095093 C187.06270508 308.24720093 187.48551758 309.11345093 187.92114258 310.00595093 C192.43171722 313.94622303 197.63026425 312.90166886 203.38989258 312.69345093 C204.56422852 312.67089233 205.73856445 312.64833374 206.94848633 312.62509155 C209.84690895 312.56618052 212.74275685 312.48396724 215.63989258 312.38095093 C214.97989258 312.05095093 214.31989258 311.72095093 213.63989258 311.38095093 C212.95948912 310.0545749 212.29453279 308.72022999 211.63989258 307.38095093 C210.74804344 306.23100933 209.81434372 305.1126157 208.84692383 304.02548218 C208.30205322 303.40681274 207.75718262 302.78814331 207.19580078 302.15072632 C206.62047607 301.50482544 206.04515137 300.85892456 205.45239258 300.19345093 C201.05797376 295.21076946 196.82131934 290.19997556 192.90942383 284.82235718 C192.49047852 284.34669312 192.0715332 283.87102905 191.63989258 283.38095093 C190.97989258 283.38095093 190.31989258 283.38095093 189.63989258 283.38095093 C189.23770508 282.51470093 189.23770508 282.51470093 188.82739258 281.63095093 C187.56487692 279.23881599 186.49935792 277.35748138 184.63989258 275.38095093 C182.03453953 274.82986805 182.03453953 274.82986805 179.09692383 274.99032593 C178.0237793 275.00321655 176.95063477 275.01610718 175.8449707 275.02938843 C174.72541992 275.06290405 173.60586914 275.09641968 172.45239258 275.13095093 C171.32124023 275.1489978 170.19008789 275.16704468 169.0246582 275.18563843 C166.22937627 275.23281618 163.43452874 275.30455996 160.63989258 275.38095093 C162.28989258 278.35095093 163.93989258 281.32095093 165.63989258 284.38095093 C129.00989258 284.05095093 92.37989258 283.72095093 54.63989258 283.38095093 C56.28989258 281.07095093 57.93989258 278.76095093 59.63989258 276.38095093 C59.63989258 276.05095093 59.63989258 275.72095093 59.63989258 275.38095093 C51.71989258 275.38095093 43.79989258 275.38095093 35.63989258 275.38095093 Z " fill="#E62628" transform="translate(140.360107421875,71.61904907226563)"/>
<path d="M0 0 C1.19301224 -0.00990463 2.38602448 -0.01980927 3.6151886 -0.03001404 C4.91559082 -0.02551239 6.21599304 -0.02101074 7.55580139 -0.01637268 C8.94580636 -0.02207795 10.33580664 -0.02904282 11.72579956 -0.03717041 C15.49444887 -0.05510002 19.26286531 -0.05393385 23.03154445 -0.04822803 C26.1801577 -0.0451358 29.32872624 -0.05122901 32.47733313 -0.05726677 C39.9065219 -0.07130979 47.33559567 -0.06975266 54.76478577 -0.05836487 C62.42374882 -0.04688415 70.08236168 -0.06095885 77.74127859 -0.08776134 C84.32233549 -0.10992778 90.90328253 -0.1165536 97.48437411 -0.11068493 C101.4126207 -0.10731634 105.34064283 -0.1097237 109.26885796 -0.12693596 C112.96343445 -0.14241821 116.65749276 -0.13843596 120.35204887 -0.11963081 C122.3499571 -0.11419573 124.34788867 -0.12844936 126.3457489 -0.14332581 C137.24291203 -0.05371105 137.24291203 -0.05371105 142.04823303 4.38768005 C145.81886454 8.41835511 146.17225961 12.7559935 146.17762756 18.11106873 C146.18077972 19.0193895 146.18393188 19.92771027 146.18717957 20.86355591 C146.18414322 22.31989189 146.18414322 22.31989189 146.18104553 23.8056488 C146.18200226 24.81807144 146.18295898 25.83049408 146.1839447 26.87359619 C146.18462434 29.01444053 146.18278514 31.15528695 146.17860413 33.29612732 C146.17328068 36.54609407 146.17854209 39.79592087 146.18495178 43.04588318 C146.18429042 45.13247202 146.18300806 47.21906078 146.18104553 49.3056488 C146.18306976 50.2664183 146.18509399 51.22718781 146.18717957 52.21707153 C146.12340934 70.91183193 146.12340934 70.91183193 141.04823303 76.38768005 C134.49873548 80.2020348 128.01511043 79.81815611 120.58900452 79.79173279 C119.22826071 79.79744187 117.8675217 79.8044082 116.50679016 79.81253052 C112.82709754 79.83041444 109.14764398 79.82930304 105.46792102 79.82358813 C102.39128161 79.82049043 99.31468773 79.82659493 96.23805481 79.83262688 C88.97951096 79.84665379 81.72108486 79.84512514 74.46253967 79.83372498 C66.98189558 79.82223543 59.50160965 79.83633742 52.02101272 79.86312145 C45.58853366 79.88528774 39.15616696 79.89191405 32.72365242 79.88604504 C28.88597755 79.88267767 25.04853245 79.88507612 21.21088982 79.90229607 C17.60328474 79.91777901 13.99621031 79.91379541 10.3886261 79.89499092 C8.43844779 79.88955727 6.48824557 79.90380742 4.53811646 79.91868591 C-1.90739048 79.8644031 -6.08253576 79.80020395 -10.95176697 75.38768005 C-11.54989197 74.87205505 -12.14801697 74.35643005 -12.76426697 73.82518005 C-15.31251176 70.74046268 -15.0927405 67.44491248 -15.12876892 63.63450623 C-15.14160416 62.45285385 -15.15443939 61.27120148 -15.16766357 60.05374146 C-15.17505051 58.77562088 -15.18243744 57.49750031 -15.19004822 56.1806488 C-15.19811996 54.86736099 -15.20619171 53.55407318 -15.21450806 52.20098877 C-15.22952147 49.41938914 -15.2393659 46.63781492 -15.24693298 43.85618591 C-15.25799042 40.30188021 -15.29238769 36.74820176 -15.33210468 33.19411755 C-15.36461357 29.79382016 -15.369053 26.39358957 -15.37754822 22.9931488 C-15.3950563 21.72110092 -15.41256439 20.44905304 -15.43060303 19.13845825 C-15.40309486 7.93884548 -15.40309486 7.93884548 -10.95176697 3.38768005 C-7.18159155 0.69505725 -4.60937289 0.0108241 0 0 Z " fill="#E72627" transform="translate(184.95176696777344,166.61231994628906)"/>
<path d="M0 0 C0.91070251 -0.0065712 1.82140503 -0.0131424 2.75970459 -0.01991272 C5.78137284 -0.03966654 8.80299139 -0.05131194 11.82470703 -0.0612793 C12.85494114 -0.06535482 13.88517525 -0.06943035 14.94662857 -0.07362938 C20.39768525 -0.09449736 25.84871668 -0.10879687 31.29980469 -0.11816406 C36.93817538 -0.12924001 42.57615267 -0.16365164 48.21438408 -0.20333576 C52.54319 -0.22944127 56.87190124 -0.23785042 61.20077896 -0.24144554 C63.27965075 -0.24632592 65.35851791 -0.25798089 67.43731308 -0.27648354 C70.34394566 -0.30074963 73.24954781 -0.29993308 76.15625 -0.29296875 C77.44841934 -0.31218384 77.44841934 -0.31218384 78.76669312 -0.33178711 C84.57475422 -0.28096399 84.57475422 -0.28096399 87.71463013 1.99153137 C89.83159385 5.09059679 90.14206208 7.44592708 90.20751953 11.17700195 C88.8432356 14.10046753 87.48001045 15.90451104 85.20751953 18.17700195 C82.24616179 18.38112023 79.37794135 18.46014125 76.41503906 18.45166016 C75.04898529 18.45932655 75.04898529 18.45932655 73.65533447 18.46714783 C70.63360082 18.48109014 67.6120941 18.4800834 64.59033203 18.4777832 C62.49526891 18.48166796 60.40020657 18.48600217 58.30514526 18.49076843 C53.90848236 18.4982409 49.51189974 18.49793221 45.11523438 18.49267578 C39.47691353 18.48688382 33.83892146 18.50380069 28.20065498 18.52702045 C23.87183709 18.54174372 19.54309859 18.54263134 15.2142601 18.53951073 C13.13540878 18.54002478 11.0565531 18.5452782 8.97772598 18.55532265 C6.07119581 18.56764057 3.16530872 18.56092289 0.25878906 18.54931641 C-0.60265717 18.55696014 -1.46410339 18.56460388 -2.35165405 18.57247925 C-5.89706687 18.54114035 -8.1703179 18.52075451 -11.31350708 16.78410339 C-13.69328125 14.19816201 -13.65863962 11.79753105 -13.90185547 8.40356445 C-13.74997502 5.31171238 -12.77059765 3.52143713 -10.79248047 1.17700195 C-7.44724309 -0.49561674 -3.679614 0.01143176 0 0 Z " fill="#E12728" transform="translate(211.79248046875,133.822998046875)"/>
<path d="M0 0 C4.52557407 2.75274588 7.8445182 5.79357533 9.90234375 10.73046875 C11.21837374 16.27940119 10.3030492 21.75871673 7.73828125 26.8125 C4.88510949 30.66813751 2.00545351 32.9056311 -2.44921875 34.6875 C-9.74495949 35.54582244 -14.38089146 34.94251831 -20.57421875 30.9375 C-23.83382001 28.27835161 -25.51005593 26.01679083 -26.57421875 21.9375 C-27.15047892 15.90193293 -27.06199855 11.10903556 -23.57421875 5.9375 C-17.45907231 -1.14319588 -8.89921428 -3.67312031 0 0 Z " fill="#E62627" transform="translate(318.57421875,271.0625)"/>
<path d="M0 0 C4.62903962 3.33721461 8.67176026 7.15120732 9.6875 12.9375 C10.11583808 18.50589503 9.42459713 23.07608868 6.6875 27.9375 C2.52931884 32.66922339 -1.99720575 34.75078272 -8.1875 35.25 C-13.79675293 35.08098296 -17.89205245 33.16855455 -22.125 29.5 C-25.84221928 25.14554313 -27.02766374 21.72917056 -27.3125 15.9375 C-26.16969978 9.93522498 -24.13876505 5.84447647 -19.3125 1.9375 C-18.61125 1.339375 -17.91 0.74125 -17.1875 0.125 C-11.6333846 -2.16909114 -5.66021321 -1.81554009 0 0 Z " fill="#E42B2D" transform="translate(198.3125,271.0625)"/>
<path d="M0 0 C1.19301224 -0.00990463 2.38602448 -0.01980927 3.6151886 -0.03001404 C4.91559082 -0.02551239 6.21599304 -0.02101074 7.55580139 -0.01637268 C8.94580636 -0.02207795 10.33580664 -0.02904282 11.72579956 -0.03717041 C15.49444887 -0.05510002 19.26286531 -0.05393385 23.03154445 -0.04822803 C26.1801577 -0.0451358 29.32872624 -0.05122901 32.47733313 -0.05726677 C39.9065219 -0.07130979 47.33559567 -0.06975266 54.76478577 -0.05836487 C62.42374882 -0.04688415 70.08236168 -0.06095885 77.74127859 -0.08776134 C84.32233549 -0.10992778 90.90328253 -0.1165536 97.48437411 -0.11068493 C101.4126207 -0.10731634 105.34064283 -0.1097237 109.26885796 -0.12693596 C112.96343445 -0.14241821 116.65749276 -0.13843596 120.35204887 -0.11963081 C122.3499571 -0.11419573 124.34788867 -0.12844936 126.3457489 -0.14332581 C137.24291203 -0.05371105 137.24291203 -0.05371105 142.04823303 4.38768005 C145.81886454 8.41835511 146.17225961 12.7559935 146.17762756 18.11106873 C146.18077972 19.0193895 146.18393188 19.92771027 146.18717957 20.86355591 C146.18414322 22.31989189 146.18414322 22.31989189 146.18104553 23.8056488 C146.18200226 24.81807144 146.18295898 25.83049408 146.1839447 26.87359619 C146.18462434 29.01444053 146.18278514 31.15528695 146.17860413 33.29612732 C146.17328068 36.54609407 146.17854209 39.79592087 146.18495178 43.04588318 C146.18429042 45.13247202 146.18300806 47.21906078 146.18104553 49.3056488 C146.18306976 50.2664183 146.18509399 51.22718781 146.18717957 52.21707153 C146.12340934 70.91183193 146.12340934 70.91183193 141.04823303 76.38768005 C134.47330651 80.23429053 127.95118142 79.79136233 120.49378967 79.72825623 C119.12331664 79.72740902 117.75284224 79.72788692 116.38237 79.72958374 C112.6782366 79.73044148 108.97439699 79.71285189 105.27033162 79.69186187 C101.39328978 79.67305797 97.51624057 79.67134171 93.63916016 79.66778564 C86.30468177 79.65847605 78.97033817 79.63387706 71.63591903 79.60373718 C63.28285125 79.57015928 54.92977689 79.55369865 46.57665837 79.53865087 C29.40043874 79.50732646 12.22435016 79.4545872 -4.95176697 79.38768005 C-4.95176697 78.72768005 -4.95176697 78.06768005 -4.95176697 77.38768005 C-4.25215819 77.38344811 -3.55254942 77.37921618 -2.83174038 77.374856 C14.20330854 77.27148249 31.23831568 77.1628348 48.2732935 77.0483408 C56.51132886 76.99309878 64.74936856 76.93963181 72.98744202 76.8903656 C80.16902036 76.84741302 87.35056798 76.8011075 94.53209871 76.7508015 C98.33348288 76.72428955 102.13486132 76.69943914 105.9362812 76.67860603 C109.51738472 76.6589273 113.09843025 76.63475107 116.67948151 76.60718918 C118.61399871 76.59345241 120.5485476 76.58442715 122.48309326 76.57556152 C128.10241788 76.52823844 133.51468289 76.39948159 139.04823303 75.38768005 C139.04823303 74.39768005 139.04823303 73.40768005 139.04823303 72.38768005 C139.70823303 72.05768005 140.36823303 71.72768005 141.04823303 71.38768005 C142.07041938 67.73332374 142.19691611 64.18268048 142.2535553 60.40403748 C142.27350052 59.22319077 142.29344574 58.04234406 142.31399536 56.82571411 C142.33070786 55.56096756 142.34742035 54.29622101 142.36463928 52.9931488 C142.39581093 51.03941093 142.39581093 51.03941093 142.4276123 49.04620361 C142.48261487 45.59558742 142.53211962 42.14491371 142.58045959 38.69419861 C142.63083468 35.168146 142.6864369 31.64217618 142.74159241 28.11619568 C142.84890681 21.20676235 142.95041028 14.29725411 143.04823303 7.38768005 C141.39823303 7.05768005 139.74823303 6.72768005 138.04823303 6.38768005 C138.04823303 5.39768005 138.04823303 4.40768005 138.04823303 3.38768005 C91.18823303 3.05768005 44.32823303 2.72768005 -3.95176697 2.38768005 C-3.95176697 3.04768005 -3.95176697 3.70768005 -3.95176697 4.38768005 C-5.60176697 4.71768005 -7.25176697 5.04768005 -8.95176697 5.38768005 C-9.28176697 6.37768005 -9.61176697 7.36768005 -9.95176697 8.38768005 C-10.61176697 8.38768005 -11.27176697 8.38768005 -11.95176697 8.38768005 C-12.04448349 16.27194871 -12.11553956 24.15598928 -12.15901566 32.04066849 C-12.17988307 35.70194517 -12.20818402 39.36284864 -12.25352478 43.02391052 C-12.2970146 46.55766716 -12.32091045 50.09106504 -12.33127594 53.62506866 C-12.34225434 55.62819257 -12.37347573 57.63117232 -12.404953 59.63407898 C-12.40525513 60.85504272 -12.40555725 62.07600647 -12.40586853 63.33396912 C-12.41475098 64.40874512 -12.42363342 65.48352112 -12.43278503 66.59086609 C-11.84066475 70.03366878 -10.60533992 71.20513417 -7.95176697 73.38768005 C-8.28176697 74.37768005 -8.61176697 75.36768005 -8.95176697 76.38768005 C-13.82676697 72.76268005 -13.82676697 72.76268005 -14.95176697 69.38768005 C-15.06027012 67.47211856 -15.11062855 65.55305247 -15.12876892 63.63450623 C-15.14160416 62.45285385 -15.15443939 61.27120148 -15.16766357 60.05374146 C-15.17505051 58.77562088 -15.18243744 57.49750031 -15.19004822 56.1806488 C-15.19811996 54.86736099 -15.20619171 53.55407318 -15.21450806 52.20098877 C-15.22952147 49.41938914 -15.2393659 46.63781492 -15.24693298 43.85618591 C-15.25799042 40.30188021 -15.29238769 36.74820176 -15.33210468 33.19411755 C-15.36461357 29.79382016 -15.369053 26.39358957 -15.37754822 22.9931488 C-15.3950563 21.72110092 -15.41256439 20.44905304 -15.43060303 19.13845825 C-15.40309486 7.93884548 -15.40309486 7.93884548 -10.95176697 3.38768005 C-7.18159155 0.69505725 -4.60937289 0.0108241 0 0 Z " fill="#E05A60" transform="translate(184.95176696777344,166.61231994628906)"/>
<path d="M0 0 C81.84 0 163.68 0 248 0 C248 0.33 248 0.66 248 1 C241.53946977 2.6362037 235.67232348 3.29621534 229.02311707 3.29193115 C228.0586147 3.29913469 227.09411234 3.30633822 226.10038263 3.31376004 C222.8900615 3.33533277 219.67986469 3.34298211 216.46948242 3.35058594 C214.15939892 3.36316654 211.84931983 3.37658017 209.53924561 3.39076233 C203.28146364 3.42655431 197.02369229 3.44996628 190.76584411 3.4705801 C184.21604647 3.49368627 177.66629499 3.52633164 171.11653137 3.55743408 C159.41999977 3.61166304 147.72344921 3.65518286 136.02686153 3.69521323 C125.4212539 3.73179577 114.81573449 3.77885616 104.21020508 3.83349609 C91.88451733 3.89699403 79.55882877 3.95371167 67.23306543 4.0004847 C60.71163952 4.0252465 54.19025643 4.05277037 47.66887474 4.08739471 C41.54330092 4.11949045 35.41776919 4.14177555 29.29212952 4.15640068 C27.04104579 4.16339548 24.78996984 4.17384532 22.53891945 4.18795204 C19.47321117 4.20660932 16.40772239 4.21291565 13.34196472 4.21600342 C12.44538232 4.22435581 11.54879991 4.2327082 10.62504834 4.2413137 C9.80403647 4.2395816 8.98302461 4.2378495 8.1371336 4.23606491 C7.07591857 4.2401345 7.07591857 4.2401345 5.99326485 4.2442863 C3.66051221 3.95839378 2.03329084 3.15037212 0 2 C0 1.34 0 0.68 0 0 Z " fill="#D14241" transform="translate(129,425)"/>
<path d="M0 0 C1.2016832 -0.00412399 2.40336639 -0.00824799 3.64146423 -0.01249695 C5.60620697 0.00368179 5.60620697 0.00368179 7.61064148 0.02018738 C9.01037579 0.02103402 10.41011143 0.02055778 11.80984497 0.01885986 C15.60293349 0.01799994 19.39573679 0.03562507 23.18875909 0.05658174 C27.15523341 0.07534907 31.12171444 0.07709902 35.08822632 0.08065796 C42.59630786 0.08997827 50.10425819 0.11459183 57.61228198 0.14470643 C66.16118894 0.1782509 74.7101022 0.19473656 83.25905859 0.20979273 C100.84206769 0.24114142 118.4249491 0.29390161 136.00785828 0.36076355 C136.00785828 1.02076355 136.00785828 1.68076355 136.00785828 2.36076355 C89.80785828 2.36076355 43.60785828 2.36076355 -3.99214172 2.36076355 C-3.99214172 3.02076355 -3.99214172 3.68076355 -3.99214172 4.36076355 C-5.64214172 4.69076355 -7.29214172 5.02076355 -8.99214172 5.36076355 C-9.32214172 6.35076355 -9.65214172 7.34076355 -9.99214172 8.36076355 C-10.65214172 8.36076355 -11.31214172 8.36076355 -11.99214172 8.36076355 C-12.08485825 16.24503221 -12.15591432 24.12907277 -12.19939041 32.01375198 C-12.22025782 35.67502866 -12.24855878 39.33593213 -12.29389954 42.99699402 C-12.33738935 46.53075066 -12.3612852 50.06414854 -12.3716507 53.59815216 C-12.38262909 55.60127607 -12.41385048 57.60425581 -12.44532776 59.60716248 C-12.44562988 60.82812622 -12.44593201 62.04908997 -12.44624329 63.30705261 C-12.45512573 64.38182861 -12.46400818 65.45660461 -12.47315979 66.56394958 C-11.8810395 70.00675228 -10.64571467 71.17821767 -7.99214172 73.36076355 C-8.32214172 74.35076355 -8.65214172 75.34076355 -8.99214172 76.36076355 C-13.86714172 72.73576355 -13.86714172 72.73576355 -14.99214172 69.36076355 C-15.10064487 67.44520206 -15.1510033 65.52613596 -15.16914368 63.60758972 C-15.18197891 62.42593735 -15.19481415 61.24428497 -15.20803833 60.02682495 C-15.21542526 58.74870438 -15.22281219 57.4705838 -15.23042297 56.1537323 C-15.23849472 54.84044449 -15.24656647 53.52715668 -15.25488281 52.17407227 C-15.26989622 49.39247263 -15.27974065 46.61089841 -15.28730774 43.82926941 C-15.29836517 40.2749637 -15.33276244 36.72128525 -15.37247944 33.16720104 C-15.40498832 29.76690366 -15.40942776 26.36667306 -15.41792297 22.9662323 C-15.43543106 21.69418442 -15.45293915 20.42213654 -15.47097778 19.11154175 C-15.44346961 7.91192898 -15.44346961 7.91192898 -10.99214172 3.36076355 C-7.2044885 0.64983995 -4.63327294 -0.01228985 0 0 Z " fill="#C64544" transform="translate(184.9921417236328,166.6392364501953)"/>
<path d="M0 0 C3.86333545 0.08815387 7.72685843 0.09579061 11.59104443 0.11235571 C18.89130069 0.15568945 26.18858471 0.27031063 33.4875381 0.41124856 C41.80404378 0.56831183 50.12069952 0.64484952 58.43832159 0.71498466 C75.53230356 0.86090886 92.62340098 1.1067855 109.7151289 1.41951513 C110.0451289 2.40951513 110.3751289 3.39951513 110.7151289 4.41951513 C41.9101289 3.92451513 41.9101289 3.92451513 -28.2848711 3.41951513 C-28.2848711 4.40951513 -28.2848711 5.39951513 -28.2848711 6.41951513 C-29.6048711 6.74951513 -30.9248711 7.07951513 -32.2848711 7.41951513 C-32.2848711 8.07951513 -32.2848711 8.73951513 -32.2848711 9.41951513 C-32.9448711 9.41951513 -33.6048711 9.41951513 -34.2848711 9.41951513 C-34.3776836 10.25482763 -34.3776836 10.25482763 -34.4723711 11.10701513 C-35.68043836 14.54536039 -37.09039346 16.69332162 -40.2848711 18.41951513 C-44.89994307 19.05286623 -49.45022823 18.88828222 -54.0973711 18.73201513 C-55.36258595 18.70945654 -56.62780079 18.68689795 -57.93135548 18.66365576 C-61.05039729 18.60480591 -64.16703012 18.52262883 -67.2848711 18.41951513 C-66.9548711 16.76951513 -66.6248711 15.11951513 -66.2848711 13.41951513 C-65.6248711 13.41951513 -64.9648711 13.41951513 -64.2848711 13.41951513 C-63.9548711 11.10951513 -63.6248711 8.79951513 -63.2848711 6.41951513 C-62.9548711 7.40951513 -62.6248711 8.39951513 -62.2848711 9.41951513 C-61.6248711 9.41951513 -60.9648711 9.41951513 -60.2848711 9.41951513 C-60.2848711 10.07951513 -60.2848711 10.73951513 -60.2848711 11.41951513 C-60.9448711 11.41951513 -61.6048711 11.41951513 -62.2848711 11.41951513 C-62.9448711 12.73951513 -63.6048711 14.05951513 -64.2848711 15.41951513 C-60.70510035 15.83354556 -57.13148762 16.07667309 -53.5348711 16.29451513 C-52.53842579 16.41181982 -51.54198048 16.52912451 -50.51533985 16.64998388 C-46.97599644 16.8098252 -44.6433529 16.60947572 -41.2848711 15.41951513 C-40.17441125 13.7710844 -39.07314248 12.11271933 -38.08413792 10.38867903 C-29.76635383 -3.11060752 -13.94244933 -0.37222135 0 0 Z " fill="#DB6B6B" transform="translate(210.2848711013794,367.58048486709595)"/>
<path d="M0 0 C1.32 0 2.64 0 4 0 C3.37063561 2.93703384 2.37579827 5.33788628 1 8 C2.05885406 8.01030746 3.11770813 8.02061493 4.20864868 8.03123474 C14.24074913 8.12945577 24.27279424 8.23223051 34.30480385 8.33933926 C39.46099543 8.39424736 44.6171929 8.44761175 49.7734375 8.49731445 C54.75963064 8.54543701 59.74576383 8.59778923 64.731884 8.65294075 C66.62381857 8.6731498 68.51576942 8.69189483 70.40773392 8.70907402 C80.98049502 8.80611603 91.46175374 9.06708966 102 10 C102 9.01 102 8.02 102 7 C103.98 7.99 103.98 7.99 106 9 C106 9.99 106 10.98 106 12 C69.04 12 32.08 12 -6 12 C-4.38208558 9.30347597 -2.74434373 6.61651559 -1 4 C-12.385 3.505 -12.385 3.505 -24 3 C-24 2.67 -24 2.34 -24 2 C-16.08 1.67 -8.16 1.34 0 1 C0 0.67 0 0.34 0 0 Z " fill="#D75555" transform="translate(200,344)"/>
<path d="M0 0 C0.66 0 1.32 0 2 0 C4.11011078 8.21993148 4.27354672 16.1851275 4.22705078 24.62939453 C4.22648554 26.07912691 4.22680542 27.52885987 4.22793579 28.97859192 C4.22850591 32.88495108 4.21680725 36.79118558 4.20278788 40.69751596 C4.19022327 44.79075889 4.18910552 48.88400517 4.18673706 52.9772644 C4.18053905 60.71534757 4.16415111 68.45337373 4.14403808 76.19143188 C4.12162663 85.00648199 4.1106725 93.82153492 4.10064721 102.63660645 C4.07978327 120.75776987 4.04464017 138.87888034 4 157 C3.34 157 2.68 157 2 157 C2 159.97 2 162.94 2 166 C0.02 166.99 0.02 166.99 -2 168 C-2.28875 168.845625 -2.5775 169.69125 -2.875 170.5625 C-3.431875 171.7690625 -3.431875 171.7690625 -4 173 C-7.125 173.8125 -7.125 173.8125 -10 174 C-9.41992188 173.38125 -9.41992188 173.38125 -8.828125 172.75 C0.81171277 162.06027891 1.15151535 152.38072884 1.12939453 138.43652344 C1.13075123 137.06419325 1.13253267 135.69186344 1.13470459 134.3195343 C1.1392487 130.6065096 1.13750136 126.8935128 1.1343255 123.18048763 C1.13178422 119.28188441 1.13414455 115.3832835 1.13571167 111.48468018 C1.13752907 104.93460667 1.13513921 98.38454445 1.13037109 91.83447266 C1.1249384 84.28475338 1.12668564 76.73506116 1.1321975 69.18534255 C1.13675173 62.68486862 1.13736763 56.18440279 1.13475883 49.68392777 C1.13320757 45.80984699 1.13297034 41.93577886 1.13629532 38.06169891 C1.13920738 34.41403135 1.13713773 30.76639824 1.13140106 27.11873436 C1.12947108 25.15879233 1.1323995 23.19884735 1.13552856 21.23890686 C1.11863998 14.10332784 0.79489868 7.092501 0 0 Z " fill="#CA4A49" transform="translate(355,151)"/>
<path d="M0 0 C0.33 0 0.66 0 1 0 C1.06849915 30.51472253 1.12156067 61.02942742 1.15319599 91.54420852 C1.15694792 95.15015932 1.16083091 98.75610997 1.16479492 102.36206055 C1.16558185 103.07991329 1.16636878 103.79776604 1.16717956 104.5373719 C1.18021869 116.14707921 1.20386426 127.75674177 1.23145839 139.36642257 C1.25955422 151.28697371 1.27618508 163.20750147 1.28226548 175.12808436 C1.28600552 181.82035331 1.29534448 188.51251464 1.31719017 195.20475197 C1.33759737 201.50756151 1.34382517 207.81022819 1.33932304 214.11306763 C1.34014634 216.42247482 1.34608659 218.73188693 1.35761642 221.04126549 C1.3726266 224.20365318 1.3689224 227.3655073 1.36076355 230.52790833 C1.36950207 231.43358561 1.3782406 232.33926289 1.38724393 233.27238494 C1.34141192 239.8819157 -0.01355247 245.70918569 -2 252 C-2.66 251.67 -3.32 251.34 -4 251 C-3.86722656 250.3915625 -3.73445313 249.783125 -3.59765625 249.15625 C-0.44934211 233.52958127 -0.83886428 217.49099585 -0.79467773 201.62109375 C-0.78507757 199.41186346 -0.77506631 197.20263493 -0.76467896 194.9934082 C-0.73785519 189.04414354 -0.71672498 183.09487113 -0.69667697 177.14558029 C-0.67467693 170.91027192 -0.6473574 164.67498681 -0.62062073 158.43969727 C-0.57370292 147.32223267 -0.53076336 136.20475757 -0.48996563 125.08726895 C-0.45290404 114.99957632 -0.41365773 104.91189474 -0.37231445 94.82421875 C-0.36959018 94.15933532 -0.36686591 93.49445188 -0.36405908 92.80942047 C-0.35037774 89.47331852 -0.33665574 86.13721675 -0.32291877 82.80111504 C-0.20938804 55.20076519 -0.10248704 27.6003929 0 0 Z " fill="#C84A4A" transform="translate(427,128)"/>
<path d="M0 0 C0.33 0.66 0.66 1.32 1 2 C1.99 2.495 1.99 2.495 3 3 C-3.34162627 6.47279534 -8.75724307 7.11759043 -15.91827393 7.17167664 C-16.59013096 7.17802574 -17.26198799 7.18437485 -17.95420432 7.19091636 C-20.19243951 7.2108637 -22.43066024 7.22398273 -24.66894531 7.23706055 C-26.27920333 7.24992322 -27.88945826 7.26317795 -29.49971008 7.27679443 C-33.86556384 7.31232308 -38.23143779 7.34160281 -42.59734821 7.36918616 C-45.32821022 7.3867193 -48.05905962 7.40559139 -50.78990936 7.42493629 C-60.32622075 7.49244185 -69.86255028 7.55482845 -79.39892578 7.61254883 C-88.27281233 7.66639599 -97.14656789 7.73151028 -106.02033734 7.80188721 C-113.6510828 7.86189745 -121.28185614 7.91391879 -128.91269946 7.95981437 C-133.46477371 7.98733095 -138.01677041 8.01803634 -142.56876373 8.05682945 C-146.85330407 8.09307325 -151.13779395 8.11932503 -155.4224453 8.1381073 C-156.98890454 8.14663443 -158.55534962 8.15863434 -160.12175179 8.17449379 C-168.28032801 8.2549738 -176.06461681 8.11905583 -184 6 C-184 5.34 -184 4.68 -184 4 C-185.32 3.67 -186.64 3.34 -188 3 C-188 2.34 -188 1.68 -188 1 C-186.7934375 1.433125 -186.7934375 1.433125 -185.5625 1.875 C-176.13119484 4.85330689 -167.42002946 5.28784683 -157.6171875 5.25878906 C-156.07383052 5.26150323 -154.53047484 5.26506655 -152.98712158 5.26940918 C-148.81772909 5.27848478 -144.64843617 5.27500895 -140.47904205 5.26865101 C-136.10305017 5.26356592 -131.72706646 5.26828941 -127.35107422 5.27142334 C-120.0042163 5.27505569 -112.65739867 5.2702831 -105.31054688 5.26074219 C-96.83254962 5.24985905 -88.35464859 5.25338514 -79.87665367 5.264395 C-72.58041756 5.27348873 -65.28421031 5.27474296 -57.98797035 5.26951766 C-53.63777719 5.26640942 -49.28762917 5.265957 -44.93743896 5.27259064 C-40.84649938 5.27839388 -36.75568312 5.27431302 -32.66475677 5.26280212 C-31.16885329 5.26017141 -29.67293932 5.26089328 -28.1770401 5.26532745 C-18.06659307 5.29251999 -9.04438751 5.10196218 0 0 Z " fill="#B96061" transform="translate(344,325)"/>
<path d="M0 0 C2.66404576 1.01050012 3.97707828 1.97233585 5.8125 4.1875 C7.39739585 7.94120071 7.06435104 10.09737951 6 14 C4.34929494 16.42081333 3.07759952 17.79479474 0.13295746 18.35553741 C-2.28167848 18.49435946 -4.66463509 18.49432749 -7.08300781 18.45410156 C-8.45913742 18.45497772 -8.45913742 18.45497772 -9.86306763 18.45587158 C-12.89347252 18.45308631 -15.92289208 18.42197308 -18.953125 18.390625 C-21.05490583 18.3831642 -23.15669362 18.37747051 -25.25848389 18.37347412 C-30.7890139 18.35820524 -36.31912339 18.31891228 -41.8494873 18.2746582 C-47.49335033 18.23373275 -53.13728134 18.21546891 -58.78125 18.1953125 C-69.85435138 18.15241952 -80.92714071 18.08415274 -92 18 C-88.2017488 15.46783253 -85.13917567 15.70027816 -80.73657227 15.69702148 C-79.89399872 15.68858215 -79.05142517 15.68014282 -78.18331909 15.67144775 C-75.3943425 15.64562991 -72.60547187 15.63351917 -69.81640625 15.62109375 C-67.87970641 15.60492165 -65.94301474 15.58774196 -64.0063324 15.56959534 C-58.90334859 15.52386286 -53.80035388 15.489085 -48.69726562 15.45739746 C-40.5322635 15.40557132 -32.36738201 15.34034806 -24.202528 15.26918221 C-21.34861685 15.24635143 -18.49472093 15.23007696 -15.64076233 15.21446228 C-13.8914473 15.20105342 -12.14213383 15.18743843 -10.39282227 15.17358398 C-9.59840225 15.17097061 -8.80398224 15.16835724 -7.98548889 15.16566467 C-4.42386424 15.13215397 -1.48170959 14.8704274 2 14 C2.33 10.37 2.66 6.74 3 3 C1.68 3 0.36 3 -1 3 C-0.67 2.01 -0.34 1.02 0 0 Z " fill="#DB4749" transform="translate(295,134)"/>
<path d="M0 0 C4.42116304 1.35091093 6.48076658 3.13117725 9 7 C9.83132461 10.28051077 10.12601018 13.34715161 10.12939453 16.72338867 C10.13254669 17.63170944 10.13569885 18.54003021 10.13894653 19.47587585 C10.1369223 20.44676651 10.13489807 21.41765717 10.1328125 22.41796875 C10.13376923 23.43039139 10.13472595 24.44281403 10.13571167 25.48591614 C10.13639131 27.62676048 10.13455211 29.7676069 10.13037109 31.90844727 C10.12504764 35.15841402 10.13030905 38.40824082 10.13671875 41.65820312 C10.13605739 43.74479197 10.13477503 45.83138072 10.1328125 47.91796875 C10.13483673 48.87873825 10.13686096 49.83950775 10.13894653 50.82939148 C10.07628705 69.19852908 10.07628705 69.19852908 5 75 C2.75 76.375 2.75 76.375 1 77 C1 76.01 1 75.02 1 74 C1.66 74 2.32 74 3 74 C3 73.01 3 72.02 3 71 C3.99 70.505 3.99 70.505 5 70 C6.02218634 66.34564369 6.14868308 62.79500042 6.20532227 59.01635742 C6.22526749 57.83551071 6.24521271 56.654664 6.26576233 55.43803406 C6.29083107 53.54091423 6.29083107 53.54091423 6.31640625 51.60546875 C6.33718735 50.30297684 6.35796844 49.00048492 6.37937927 47.65852356 C6.43438184 44.20790737 6.48388659 40.75723365 6.53222656 37.30651855 C6.58260164 33.78046594 6.63820387 30.25449613 6.69335938 26.72851562 C6.80067378 19.81908229 6.90217725 12.90957405 7 6 C5.35 5.67 3.7 5.34 2 5 C2 4.01 2 3.02 2 2 C1.01 1.67 0.02 1.34 -1 1 C-0.67 0.67 -0.34 0.34 0 0 Z " fill="#D6686B" transform="translate(321,168)"/>
<path d="M0 0 C0.66 0.33 1.32 0.66 2 1 C1.690625 1.886875 1.38125 2.77375 1.0625 3.6875 C0.1709329 6.46709155 -0.49377007 9.13136375 -1 12 C-2.0725 12.0825 -3.145 12.165 -4.25 12.25 C-8.4191331 13.08382662 -9.24011341 13.96412475 -12 17 C-14.75 18.25 -14.75 18.25 -17 19 C-17.33 21.97 -17.66 24.94 -18 28 C-19.98 28.33 -21.96 28.66 -24 29 C-23.9484375 29.72574219 -23.896875 30.45148438 -23.84375 31.19921875 C-24.023203 34.41591386 -24.86039151 36.06615577 -26.5 38.8125 C-26.9640625 39.60269531 -27.428125 40.39289063 -27.90625 41.20703125 C-28.2671875 41.79871094 -28.628125 42.39039063 -29 43 C-30.53398997 38.56959477 -29.14251297 35.93084925 -27.35546875 31.77734375 C-20.94618785 18.64478259 -11.62583781 8.68903953 0 0 Z " fill="#DC393A" transform="translate(104,82)"/>
<path d="M0 0 C0.8971875 0.309375 0.8971875 0.309375 1.8125 0.625 C1.8125 1.285 1.8125 1.945 1.8125 2.625 C0.1625 2.955 -1.4875 3.285 -3.1875 3.625 C-3.5175 4.615 -3.8475 5.605 -4.1875 6.625 C-4.8475 6.625 -5.5075 6.625 -6.1875 6.625 C-6.28021653 14.50926866 -6.35127259 22.39330922 -6.39474869 30.27798843 C-6.4156161 33.93926511 -6.44391706 37.60016858 -6.48925781 41.26123047 C-6.53274763 44.79498711 -6.55664348 48.32838499 -6.56700897 51.86238861 C-6.57798737 53.86551252 -6.60920876 55.86849226 -6.64068604 57.87139893 C-6.64098816 59.09236267 -6.64129028 60.31332642 -6.64160156 61.57128906 C-6.65048401 62.64606506 -6.65936646 63.72084106 -6.66851807 64.82818604 C-6.07639778 68.27098873 -4.84107295 69.44245412 -2.1875 71.625 C-2.5175 72.615 -2.8475 73.605 -3.1875 74.625 C-8.0625 71 -8.0625 71 -9.1875 67.625 C-9.29600315 65.70943851 -9.34636158 63.79037241 -9.36450195 61.87182617 C-9.37733719 60.6901738 -9.39017242 59.50852142 -9.40339661 58.2910614 C-9.41078354 57.01294083 -9.41817047 55.73482025 -9.42578125 54.41796875 C-9.433853 53.10468094 -9.44192474 51.79139313 -9.45024109 50.43830872 C-9.4652545 47.65670908 -9.47509893 44.87513486 -9.48266602 42.09350586 C-9.49372345 38.53920015 -9.52812072 34.9855217 -9.56783772 31.43143749 C-9.6003466 28.03114011 -9.60478603 24.63090951 -9.61328125 21.23046875 C-9.63078934 19.95842087 -9.64829742 18.68637299 -9.66633606 17.3757782 C-9.63915916 6.31103642 -9.63915916 6.31103642 -5.1875 1.625 C-2.1875 -0.375 -2.1875 -0.375 0 0 Z " fill="#E15D62" transform="translate(179.1875,168.375)"/>
<path d="M0 0 C1.32 0 2.64 0 4 0 C3.34099246 3.07536854 2.46132217 5.07735566 1 8 C29.71 8.33 58.42 8.66 88 9 C88 9.33 88 9.66 88 10 C76.30001563 10.04626739 64.6000529 10.08184065 52.8999958 10.10362434 C47.4676402 10.11407752 42.03534702 10.12826461 36.60302734 10.15087891 C31.36405699 10.1725527 26.12514681 10.18455706 20.8861351 10.18975449 C18.88377815 10.19346009 16.88142462 10.20069583 14.87909317 10.21146011 C12.08224527 10.22590247 9.2856485 10.227981 6.48876953 10.22705078 C5.65439362 10.23424133 4.8200177 10.24143188 3.96035767 10.24884033 C-1.77189568 10.22810432 -1.77189568 10.22810432 -4 8 C-3.01 6.68 -2.02 5.36 -1 4 C-12.385 3.505 -12.385 3.505 -24 3 C-24 2.67 -24 2.34 -24 2 C-16.08 1.67 -8.16 1.34 0 1 C0 0.67 0 0.34 0 0 Z " fill="#DD282B" transform="translate(200,344)"/>
<path d="M0 0 C0.66 0.33 1.32 0.66 2 1 C2 1.99 2 2.98 2 4 C0.68 4.33 -0.64 4.66 -2 5 C-2 5.66 -2 6.32 -2 7 C-2.66 7 -3.32 7 -4 7 C-4.0928125 7.8353125 -4.0928125 7.8353125 -4.1875 8.6875 C-5.39556725 12.12584526 -6.80552236 14.27380649 -10 16 C-14.61507197 16.6333511 -19.16535713 16.46876709 -23.8125 16.3125 C-25.07771484 16.28994141 -26.34292969 16.26738281 -27.64648438 16.24414062 C-30.76552619 16.18529078 -33.88215902 16.1031137 -37 16 C-36.67 14.35 -36.34 12.7 -36 11 C-35.34 11 -34.68 11 -34 11 C-33.67 8.69 -33.34 6.38 -33 4 C-32.67 4.99 -32.34 5.98 -32 7 C-31.34 7 -30.68 7 -30 7 C-30 7.66 -30 8.32 -30 9 C-30.66 9 -31.32 9 -32 9 C-32.66 10.32 -33.32 11.64 -34 13 C-21.04117865 14.83619199 -21.04117865 14.83619199 -8.83105469 11.72412109 C-5.07721664 8.3627021 -2.45463648 4.3691329 0 0 Z " fill="#CA2F30" transform="translate(180,370)"/>
<path d="M0 0 C5.31040208 3.23012887 8.67012293 6.91810005 10.42578125 12.9375 C10.67578125 16.4375 10.67578125 16.4375 10.42578125 18.9375 C7.27619294 15.51403445 6.86399016 12.49487263 6.42578125 7.9375 C5.43578125 7.9375 4.44578125 7.9375 3.42578125 7.9375 C3.09578125 7.2775 2.76578125 6.6175 2.42578125 5.9375 C1.18828125 5.2259375 1.18828125 5.2259375 -0.07421875 4.5 C-2.57421875 2.9375 -2.57421875 2.9375 -3.57421875 -0.0625 C-5.22421875 0.2675 -6.87421875 0.5975 -8.57421875 0.9375 C-8.57421875 1.2675 -8.57421875 1.5975 -8.57421875 1.9375 C-9.37859375 2.06125 -10.18296875 2.185 -11.01171875 2.3125 C-12.28015625 2.621875 -12.28015625 2.621875 -13.57421875 2.9375 C-13.90421875 3.5975 -14.23421875 4.2575 -14.57421875 4.9375 C-17.54421875 4.4425 -17.54421875 4.4425 -20.57421875 3.9375 C-20.57421875 4.5975 -20.57421875 5.2575 -20.57421875 5.9375 C-21.23421875 5.6075 -21.89421875 5.2775 -22.57421875 4.9375 C-16.707874 -1.58066083 -8.20076419 -3.38483742 0 0 Z " fill="#D85656" transform="translate(318.57421875,271.0625)"/>
<path d="M0 0 C2.23183682 0.89324081 4.45074833 1.81977945 6.65234375 2.78515625 C9.56810786 3.85516143 11.5638992 4.10581296 14.6328125 3.87890625 C15.1278125 5.36390625 15.1278125 5.36390625 15.6328125 6.87890625 C16.9528125 6.87890625 18.2728125 6.87890625 19.6328125 6.87890625 C19.6328125 8.19890625 19.6328125 9.51890625 19.6328125 10.87890625 C15.99815316 10.30299192 13.32617427 9.30837437 10.1328125 7.50390625 C1.57041086 3.08871852 -7.85268622 1.68521992 -17.3671875 0.87890625 C-11.6778261 -2.33345427 -6.11837985 -2.03709399 0 0 Z " fill="#D05A5D" transform="translate(321.3671875,118.12109375)"/>
<path d="M0 0 C23.1 0 46.2 0 70 0 C65.93012296 2.03493852 64.33178124 2.22301371 59.9375 2.125 C58.89464844 2.10695313 57.85179687 2.08890625 56.77734375 2.0703125 C55.40255859 2.03550781 55.40255859 2.03550781 54 2 C51.0414693 1.89523546 51.0414693 1.89523546 48.375 2.5625 C47.59125 2.706875 46.8075 2.85125 46 3 C45.505 2.505 45.505 2.505 45 2 C43.58774954 1.9071274 42.17091066 1.88253228 40.75561523 1.88647461 C39.40432777 1.88658791 39.40432777 1.88658791 38.02574158 1.88670349 C36.5570034 1.89444542 36.5570034 1.89444542 35.05859375 1.90234375 C34.06118668 1.9037587 33.0637796 1.90517365 32.03614807 1.90663147 C28.83656876 1.91224886 25.63705831 1.92480429 22.4375 1.9375 C20.27408955 1.94251276 18.11067801 1.94707605 15.94726562 1.95117188 C10.63148675 1.96222393 5.31574829 1.97897896 0 2 C0 1.34 0 0.68 0 0 Z " fill="#DA2D2C" transform="translate(171,73)"/>
<path d="M0 0 C0.33 0 0.66 0 1 0 C1.99 5.61 2.98 11.22 4 17 C4.33 17 4.66 17 5 17 C5.33 19.97 5.66 22.94 6 26 C6.99 26.33 7.98 26.66 9 27 C10.1875 30.5625 10.1875 30.5625 11 34 C10.01 34 9.02 34 8 34 C1.22215321 22.85713214 -2.13247014 13.05174497 0 0 Z " fill="#D4494C" transform="translate(74,361)"/>
<path d="M0 0 C3.51572445 3.35549036 3.87727963 5.40463513 4.25 10.25 C3.8789881 15.81517853 2.50544521 20.17521792 -1.0625 24.5 C-3 26 -3 26 -5 26 C-5 24.35 -5 22.7 -5 21 C-4.01 21.33 -3.02 21.66 -2 22 C-2 20.68 -2 19.36 -2 18 C-1.01 18 -0.02 18 1 18 C0.7525 16.6078125 0.7525 16.6078125 0.5 15.1875 C-0.23700282 10.14266379 -0.08276815 5.08564289 0 0 Z " fill="#D55C5D" transform="translate(204,277)"/>
<path d="M0 0 C0.99 0.33 1.98 0.66 3 1 C3.33 1.99 3.66 2.98 4 4 C1.11465375 6.88534625 -1.58985026 6.98815671 -5.5871582 7.02172852 C-6.48265381 6.97459717 -7.37814941 6.92746582 -8.30078125 6.87890625 C-9.27724609 6.83056641 -10.25371094 6.78222656 -11.25976562 6.73242188 C-12.77086914 6.64831055 -12.77086914 6.64831055 -14.3125 6.5625 C-15.33923828 6.51029297 -16.36597656 6.45808594 -17.42382812 6.40429688 C-19.94956087 6.27507334 -22.47485261 6.14012709 -25 6 C-25.33 5.34 -25.66 4.68 -26 4 C-17.09 4 -8.18 4 1 4 C0.67 2.68 0.34 1.36 0 0 Z " fill="#CA2526" transform="translate(355,380)"/>
<path d="M0 0 C0.75 2.625 0.75 2.625 1 5 C1.99 5.33 2.98 5.66 4 6 C5.39712274 7.95597184 6.73779907 9.95436401 8 12 C7.01 12 6.02 12 5 12 C4.34 10.68 3.68 9.36 3 8 C2.34 8 1.68 8 1 8 C-4 2.52380952 -4 2.52380952 -4 0 C-16.375 0.495 -16.375 0.495 -29 1 C-29 0.34 -29 -0.32 -29 -1 C-24.91744345 -1.22601462 -20.83403925 -1.42774673 -16.75 -1.625 C-15.01169922 -1.72167969 -15.01169922 -1.72167969 -13.23828125 -1.8203125 C-12.12324219 -1.871875 -11.00820313 -1.9234375 -9.859375 -1.9765625 C-8.31975098 -2.05511475 -8.31975098 -2.05511475 -6.74902344 -2.13525391 C-3.89299456 -1.99473526 -2.33977636 -1.62261655 0 0 Z " fill="#E17075" transform="translate(329,347)"/>
<path d="M0 0 C0.99 1.32 1.98 2.64 3 4 C2.01 4.495 2.01 4.495 1 5 C0.15782 13.79252497 0.15782 13.79252497 3 21.8125 C3.99 22.8953125 3.99 22.8953125 5 24 C2 24 2 24 0.4375 22.8125 C-3.55428704 17.77937721 -3.68134486 12.19135115 -3 6 C-1.5 2.375 -1.5 2.375 0 0 Z " fill="#D35359" transform="translate(295,277)"/>
<path d="M0 0 C0.99 0.33 1.98 0.66 3 1 C3 2.98 3 4.96 3 7 C1.02 7.33 -0.96 7.66 -3 8 C-2.9484375 8.72574219 -2.896875 9.45148438 -2.84375 10.19921875 C-3.023203 13.41591386 -3.86039151 15.06615577 -5.5 17.8125 C-5.9640625 18.60269531 -6.428125 19.39289063 -6.90625 20.20703125 C-7.2671875 20.79871094 -7.628125 21.39039062 -8 22 C-9.57688569 17.5355704 -8.03273162 14.80003886 -6.2578125 10.6171875 C-4.46142237 6.87935712 -2.33338989 3.42358024 0 0 Z " fill="#D34C4E" transform="translate(83,103)"/>
<path d="M0 0 C0.33 0 0.66 0 1 0 C1 4.62 1 9.24 1 14 C-0.98 14.99 -0.98 14.99 -3 16 C-3.28875 16.845625 -3.5775 17.69125 -3.875 18.5625 C-4.24625 19.366875 -4.6175 20.17125 -5 21 C-8.125 21.8125 -8.125 21.8125 -11 22 C-10.61328125 21.5875 -10.2265625 21.175 -9.828125 20.75 C-4.1402618 14.44266655 -0.7112338 8.53480558 0 0 Z " fill="#D7484E" transform="translate(356,303)"/>
<path d="M0 0 C1.98 0 3.96 0 6 0 C5.60167969 0.45890625 5.20335937 0.9178125 4.79296875 1.390625 C1.39984291 5.31674827 1.39984291 5.31674827 -1.75 9.4375 C-2.1625 9.953125 -2.575 10.46875 -3 11 C-3.66 11 -4.32 11 -5 11 C-5.12375 11.61875 -5.2475 12.2375 -5.375 12.875 C-6 15 -6 15 -8 17 C-8.33 15.02 -8.66 13.04 -9 11 C-8.01 11 -7.02 11 -6 11 C-6.33 10.01 -6.66 9.02 -7 8 C-6.01 8 -5.02 8 -4 8 C-4 7.34 -4 6.68 -4 6 C-3.01 6 -2.02 6 -1 6 C-0.67 4.02 -0.34 2.04 0 0 Z " fill="#D95054" transform="translate(155,129)"/>
<path d="M0 0 C0.66 0 1.32 0 2 0 C2.31042285 9.80706267 2.39925415 18.63181742 -1 28 C-1.66 27.67 -2.32 27.34 -3 27 C-2.86722656 26.3915625 -2.73445313 25.783125 -2.59765625 25.15625 C-0.91319889 16.79543974 -0.40515668 8.4976283 0 0 Z " fill="#D25B59" transform="translate(426,352)"/>
<path d="M0 0 C1.32 0 2.64 0 4 0 C3.29445932 3.66881155 1.72264494 6.70450534 0 10 C-1.32 9.34 -2.64 8.68 -4 8 C-3.01 6.68 -2.02 5.36 -1 4 C-12.385 3.505 -12.385 3.505 -24 3 C-24 2.67 -24 2.34 -24 2 C-16.08 1.67 -8.16 1.34 0 1 C0 0.67 0 0.34 0 0 Z " fill="#E1696B" transform="translate(200,344)"/>
<path d="M0 0 C2.66404576 1.01050012 3.97707828 1.97233585 5.8125 4.1875 C7.39223942 7.9289881 7.07845965 10.11754525 6 14 C4.68 14.99 3.36 15.98 2 17 C2.33 12.38 2.66 7.76 3 3 C1.68 3 0.36 3 -1 3 C-0.67 2.01 -0.34 1.02 0 0 Z " fill="#D25054" transform="translate(295,134)"/>
<path d="M0 0 C7.24277937 1.75675925 14.15633938 4.22560494 20 9 C20 9.99 20 10.98 20 12 C19.67 11.34 19.34 10.68 19 10 C18.01 10 17.02 10 16 10 C16 9.34 16 8.68 16 8 C15.41992188 7.80664062 14.83984375 7.61328125 14.2421875 7.4140625 C12.62655948 6.87551983 11.01201791 6.33370952 9.3984375 5.7890625 C7.44674791 5.1469757 5.47554396 4.56444113 3.5 4 C2.2625 3.505 2.2625 3.505 1 3 C0.67 2.01 0.34 1.02 0 0 Z " fill="#CC585A" transform="translate(379,75)"/>
<path d="M0 0 C0.33 0.66 0.66 1.32 1 2 C1.66 2.33 2.32 2.66 3 3 C-2.86099454 6.8515107 -9.14641138 6.70511266 -16 7 C-15.67 6.34 -15.34 5.68 -15 5 C-13.14453125 4.47265625 -13.14453125 4.47265625 -10.8125 4.0625 C-6.81951006 3.26517773 -3.56986373 2.01376929 0 0 Z " fill="#D34C4C" transform="translate(344,325)"/>
<path d="M0 0 C0.66 0 1.32 0 2 0 C2 0.66 2 1.32 2 2 C3.37285156 1.96519531 3.37285156 1.96519531 4.7734375 1.9296875 C5.96195312 1.91164063 7.15046875 1.89359375 8.375 1.875 C9.55835938 1.85179687 10.74171875 1.82859375 11.9609375 1.8046875 C15 2 15 2 17 4 C11.60191788 5.79936071 6.18408339 5.72926101 1 3.5 C0.01 3.005 -0.98 2.51 -2 2 C-1.34 1.34 -0.68 0.68 0 0 Z " fill="#D15353" transform="translate(301,301)"/>
<path d="M0 0 C0.66 0.33 1.32 0.66 2 1 C2 1.99 2 2.98 2 4 C0.68 4.33 -0.64 4.66 -2 5 C-2 5.66 -2 6.32 -2 7 C-2.66 7 -3.32 7 -4 7 C-4.12375 7.598125 -4.2475 8.19625 -4.375 8.8125 C-5 11 -5 11 -7 14 C-8.32 13.67 -9.64 13.34 -11 13 C-7.37 8.71 -3.74 4.42 0 0 Z " fill="#D36164" transform="translate(180,370)"/>
<path d="M0 0 C1.98 0.99 1.98 0.99 4 2 C4 2.66 4 3.32 4 4 C5.98 4 7.96 4 10 4 C9.67 5.65 9.34 7.3 9 9 C6 9 6 9 4.39453125 7.5390625 C3.61142578 6.59160156 3.61142578 6.59160156 2.8125 5.625 C2.28269531 4.99851562 1.75289063 4.37203125 1.20703125 3.7265625 C0 2 0 2 0 0 Z " fill="#D74243" transform="translate(84,396)"/>
<path d="M0 0 C1.2065625 0.433125 1.2065625 0.433125 2.4375 0.875 C6.58131067 2.18357179 10.74978663 3.11217765 15 4 C15 4.66 15 5.32 15 6 C15.66 6.33 16.32 6.66 17 7 C12.71 6.34 8.42 5.68 4 5 C4 4.34 4 3.68 4 3 C2.68 2.67 1.36 2.34 0 2 C0 1.34 0 0.68 0 0 Z " fill="#D24D53" transform="translate(156,326)"/>
<path d="M0 0 C-0.25614937 4.35453922 -0.57277847 6.49609768 -3.4375 9.875 C-6 12 -6 12 -8 13 C-8 12.01 -8 11.02 -8 10 C-7.34 10 -6.68 10 -6 10 C-6 9.01 -6 8.02 -6 7 C-5.34 6.67 -4.68 6.34 -4 6 C-3.835 5.175 -3.67 4.35 -3.5 3.5 C-3.335 2.675 -3.17 1.85 -3 1 C-1 0 -1 0 0 0 Z " fill="#D55D5C" transform="translate(330,232)"/>
<path d="M0 0 C0.99 1.32 1.98 2.64 3 4 C1.38405168 6.04119788 -0.2856382 8.04072937 -2 10 C-2.66 10 -3.32 10 -4 10 C-4.25 6.6875 -4.25 6.6875 -4 3 C-2 1.0625 -2 1.0625 0 0 Z " fill="#D94645" transform="translate(154,367)"/>
<path d="M0 0 C0.8353125 0.37125 0.8353125 0.37125 1.6875 0.75 C1.6875 1.41 1.6875 2.07 1.6875 2.75 C0.0375 3.08 -1.6125 3.41 -3.3125 3.75 C-3.6425 4.74 -3.9725 5.73 -4.3125 6.75 C-4.9725 6.75 -5.6325 6.75 -6.3125 6.75 C-6.6425 7.74 -6.9725 8.73 -7.3125 9.75 C-7.625 7 -7.625 7 -7.3125 3.75 C-3.50153592 -0.37854442 -3.50153592 -0.37854442 0 0 Z " fill="#D94749" transform="translate(179.3125,168.25)"/>
<path d="M0 0 C0.66 0.33 1.32 0.66 2 1 C2.39465208 3.58317727 2.50806152 6.14188281 2.65625 8.75 C2.7696875 9.4925 2.883125 10.235 3 11 C3.66 11.33 4.32 11.66 5 12 C4.01 12.495 4.01 12.495 3 13 C0 11 0 11 -0.546875 8.90625 C-0.61390625 8.1121875 -0.6809375 7.318125 -0.75 6.5 C-0.82734375 5.7059375 -0.9046875 4.911875 -0.984375 4.09375 C-1 2 -1 2 0 0 Z " fill="#D1585E" transform="translate(199,138)"/>
<path d="M0 0 C7.40239645 -0.12886183 14.63959083 0.20274098 22 1 C22 1.33 22 1.66 22 2 C14.33333333 2 6.66666667 2 -1 2 C-0.67 1.34 -0.34 0.68 0 0 Z " fill="#D82A2B" transform="translate(352,73)"/>
<path d="M0 0 C3.99926986 2.97088618 6.92118304 6.12948725 10 10 C9.67 10.66 9.34 11.32 9 12 C6.625 11.375 6.625 11.375 4 10 C2.6875 6.875 2.6875 6.875 2 4 C1.34 4 0.68 4 0 4 C0 2.68 0 1.36 0 0 Z " fill="#DB676A" transform="translate(406,90)"/>
<path d="M0 0 C4.40189509 1.3450235 6.51048598 3.12742263 9 7 C9 8.32 9 9.64 9 11 C8.34 11 7.68 11 7 11 C7 9.35 7 7.7 7 6 C5.35 5.67 3.7 5.34 2 5 C2 4.01 2 3.02 2 2 C1.01 1.67 0.02 1.34 -1 1 C-0.67 0.67 -0.34 0.34 0 0 Z " fill="#D6585B" transform="translate(321,168)"/>
<path d="M0 0 C1.61949011 2.57213134 2.04408751 3.67669159 1.625 6.75 C1.41875 7.4925 1.2125 8.235 1 9 C0.34 9 -0.32 9 -1 9 C-1.28875 8.360625 -1.5775 7.72125 -1.875 7.0625 C-2.82823451 4.84793921 -2.82823451 4.84793921 -5 4 C-4.67 3.01 -4.34 2.02 -4 1 C-1.9375 0.3125 -1.9375 0.3125 0 0 Z " fill="#DE4249" transform="translate(349,131)"/>
<path d="M0 0 C0.66 0.66 1.32 1.32 2 2 C4.06874034 2.6425235 4.06874034 2.6425235 6 3 C6 4.32 6 5.64 6 7 C2.21213403 6.4739075 -0.17152224 5.61896089 -3 3 C-3 2.34 -3 1.68 -3 1 C-2.01 0.67 -1.02 0.34 0 0 Z " fill="#D94345" transform="translate(335,122)"/>
<path d="M0 0 C1.32 0.66 2.64 1.32 4 2 C3.01 2.495 3.01 2.495 2 3 C2 3.99 2 4.98 2 6 C-1.63 6 -5.26 6 -9 6 C-4.25 2 -4.25 2 -2 2 C-2 2.99 -2 3.98 -2 5 C-1.01 5 -0.02 5 1 5 C0.67 3.35 0.34 1.7 0 0 Z " fill="#DC383A" transform="translate(300,348)"/>
<path d="M0 0 C0.33 0 0.66 0 1 0 C1.37010337 3.3309303 1.27461204 4.62731223 -0.75 7.375 C-1.4925 7.91125 -2.235 8.4475 -3 9 C-5.140625 8.6015625 -5.140625 8.6015625 -7 8 C-5.85760183 6.66372225 -4.71098945 5.33104612 -3.5625 4 C-2.92441406 3.2575 -2.28632813 2.515 -1.62890625 1.75 C-1.09136719 1.1725 -0.55382812 0.595 0 0 Z " fill="#D55859" transform="translate(352,316)"/>
<path d="M0 0 C0.99 0 1.98 0 3 0 C3.66 1.65 4.32 3.3 5 5 C6.65 4.67 8.3 4.34 10 4 C9.34 5.32 8.68 6.64 8 8 C4.63820226 6.55922954 2.40843732 4.75249979 0 2 C0 1.34 0 0.68 0 0 Z " fill="#D64F53" transform="translate(174,296)"/>
<path d="M0 0 C0.66 0.33 1.32 0.66 2 1 C1.67 2.32 1.34 3.64 1 5 C0.401875 5.103125 -0.19625 5.20625 -0.8125 5.3125 C-3.28243264 6.08876455 -4.32251235 7.07088921 -6 9 C-6 6 -6 6 -3.5625 3.375 C-2.716875 2.59125 -1.87125 1.8075 -1 1 C-0.67 0.67 -0.34 0.34 0 0 Z " fill="#D3595E" transform="translate(180,272)"/>
<path d="M0 0 C0.66 0 1.32 0 2 0 C2 0.66 2 1.32 2 2 C4.31 2.33 6.62 2.66 9 3 C9 4.65 9 6.3 9 8 C5.18284914 6.44486447 2.77292558 4.00400272 0 1 C0 0.67 0 0.34 0 0 Z " fill="#D55456" transform="translate(92,406)"/>
<path d="M0 0 C0.66 0.99 1.32 1.98 2 3 C-0.31 5.64 -2.62 8.28 -5 11 C-5.33 10.01 -5.66 9.02 -6 8 C-5.34 8 -4.68 8 -4 8 C-3.896875 7.05125 -3.79375 6.1025 -3.6875 5.125 C-3 2 -3 2 0 0 Z " fill="#D35254" transform="translate(172,348)"/>
<path d="M0 0 C7.82152466 -0.92017937 7.82152466 -0.92017937 10.7109375 1.3359375 C12.0625 3 12.0625 3 14 6 C13.401875 5.835 12.80375 5.67 12.1875 5.5 C9.88655664 4.8885876 9.88655664 4.8885876 7 5 C7 4.01 7 3.02 7 2 C4.69 1.67 2.38 1.34 0 1 C0 0.67 0 0.34 0 0 Z " fill="#D42427" transform="translate(306,271)"/>
<path d="M0 0 C2.82248136 3.19063111 3.72851238 5.74669397 4 10 C3.01 11.485 3.01 11.485 2 13 C-0.24828052 8.50343896 -0.16682272 4.92127034 0 0 Z " fill="#D55359" transform="translate(421,110)"/>
<path d="M0 0 C1.32 0.33 2.64 0.66 4 1 C2.64531705 5.87685861 0.28324091 7.48592381 -4 10 C-4 9.01 -4 8.02 -4 7 C-3.34 7 -2.68 7 -2 7 C-1.67 6.01 -1.34 5.02 -1 4 C-0.34 4.33 0.32 4.66 1 5 C0.67 3.35 0.34 1.7 0 0 Z " fill="#DC666A" transform="translate(323,294)"/>
<path d="M0 0 C1.32 0 2.64 0 4 0 C4 0.99 4 1.98 4 3 C3.34 3 2.68 3 2 3 C1.87625 3.61875 1.7525 4.2375 1.625 4.875 C1 7 1 7 -1 9 C-1.33 7.02 -1.66 5.04 -2 3 C-1.01 3 -0.02 3 1 3 C0.67 2.01 0.34 1.02 0 0 Z " fill="#D34B4C" transform="translate(148,137)"/>
<path d="M0 0 C2.97 0.495 2.97 0.495 6 1 C6 1.66 6 2.32 6 3 C8.31 3 10.62 3 13 3 C10 5 10 5 8.02734375 4.86328125 C7.33769531 4.68152344 6.64804688 4.49976563 5.9375 4.3125 C5.24527344 4.14363281 4.55304688 3.97476562 3.83984375 3.80078125 C2 3 2 3 0 0 Z " fill="#CC4B4B" transform="translate(113,420)"/>
<path d="M0 0 C1.32 0.33 2.64 0.66 4 1 C2.8803014 2.00593243 1.7540588 3.0045849 0.625 4 C-0.00148438 4.556875 -0.62796875 5.11375 -1.2734375 5.6875 C-3 7 -3 7 -5 7 C-4.6875 5.0625 -4.6875 5.0625 -4 3 C-3.01 2.67 -2.02 2.34 -1 2 C-0.67 1.34 -0.34 0.68 0 0 Z " fill="#D05158" transform="translate(401,409)"/>
<path d="M0 0 C4.87685861 1.35468295 6.48592381 3.71675909 9 8 C6 8 6 8 4.39453125 6.50390625 C3.61142578 5.54291016 3.61142578 5.54291016 2.8125 4.5625 C2.28269531 3.92441406 1.75289063 3.28632813 1.20703125 2.62890625 C0 1 0 1 0 0 Z " fill="#D6595D" transform="translate(341,366)"/>
<path d="M0 0 C-1.28524261 0.86380259 -2.57842419 1.71580369 -3.875 2.5625 C-4.59429687 3.03816406 -5.31359375 3.51382812 -6.0546875 4.00390625 C-6.69664062 4.33261719 -7.33859375 4.66132813 -8 5 C-8.66 4.67 -9.32 4.34 -10 4 C-9.67 3.34 -9.34 2.68 -9 2 C-8.34 2 -7.68 2 -7 2 C-7 1.34 -7 0.68 -7 0 C-3.86650268 -1.04449911 -3.01031744 -0.93423645 0 0 Z " fill="#D35D5E" transform="translate(396,417)"/>
<path d="M0 0 C2.12038635 2.61514317 4.13091744 5.19637616 6 8 C4.35 8 2.7 8 1 8 C0.26919734 6.02253397 -0.39421747 4.01927511 -1 2 C-0.67 1.34 -0.34 0.68 0 0 Z " fill="#D45256" transform="translate(147,315)"/>
<path d="M0 0 C2.31 0 4.62 0 7 0 C7 0.66 7 1.32 7 2 C4.36 2.66 1.72 3.32 -1 4 C-0.67 2.68 -0.34 1.36 0 0 Z " fill="#CF4847" transform="translate(378,421)"/>
<path d="M0 0 C0.99 0.33 1.98 0.66 3 1 C3 1.99 3 2.98 3 4 C3.66 4 4.32 4 5 4 C5 6.31 5 8.62 5 11 C0 3.5 0 3.5 0 0 Z " fill="#D4585A" transform="translate(350,140)"/>
<path d="M0 0 C0.66 0 1.32 0 2 0 C3.03159626 3.09478879 2.97482862 4.52631393 2.5625 7.6875 C2.46066406 8.49574219 2.35882813 9.30398437 2.25390625 10.13671875 C2.17011719 10.75160156 2.08632812 11.36648437 2 12 C-0.13586678 8.79619983 -0.23132175 7.98060033 -0.125 4.3125 C-0.10695313 3.50425781 -0.08890625 2.69601563 -0.0703125 1.86328125 C-0.04710938 1.24839844 -0.02390625 0.63351563 0 0 Z " fill="#CB3736" transform="translate(73,126)"/>
<path d="M0 0 C0.66 0 1.32 0 2 0 C2.8125 1.625 2.8125 1.625 3 4 C1.53181864 6.24609835 -0.15852858 8.02378677 -2 10 C-2.66 9.34 -3.32 8.68 -4 8 C-3.34 7.01 -2.68 6.02 -2 5 C-1.01 5 -0.02 5 1 5 C0.67 3.35 0.34 1.7 0 0 Z " fill="#D2494D" transform="translate(411,396)"/>
<path d="M0 0 C0.66 0 1.32 0 2 0 C3 3 3 3 1.5625 6.1875 C0.7890625 7.5796875 0.7890625 7.5796875 0 9 C-0.66 9 -1.32 9 -2 9 C-2 8.01 -2 7.02 -2 6 C-1.34 6 -0.68 6 0 6 C-0.2784375 4.7934375 -0.2784375 4.7934375 -0.5625 3.5625 C-0.706875 2.716875 -0.85125 1.87125 -1 1 C-0.67 0.67 -0.34 0.34 0 0 Z " fill="#D55159" transform="translate(418,386)"/>
<path d="M0 0 C1.5 1.3125 1.5 1.3125 3 3 C3 3.99 3 4.98 3 6 C1.35 6 -0.3 6 -2 6 C-2 4.35 -2 2.7 -2 1 C-1.34 0.67 -0.68 0.34 0 0 Z " fill="#D84345" transform="translate(324,375)"/>
<path d="M0 0 C0.66 0.33 1.32 0.66 2 1 C2 1.99 2 2.98 2 4 C0.68 4.33 -0.64 4.66 -2 5 C-2 5.66 -2 6.32 -2 7 C-2.99 6.67 -3.98 6.34 -5 6 C-3.35 4.02 -1.7 2.04 0 0 Z " fill="#D54E55" transform="translate(180,370)"/>
<path d="M0 0 C1.32 0 2.64 0 4 0 C2.60667426 3.36720387 1.0210714 4.9859524 -2 7 C-2 5.68 -2 4.36 -2 3 C-1.34 3 -0.68 3 0 3 C0 2.01 0 1.02 0 0 Z " fill="#D2504F" transform="translate(159,362)"/>
<path d="M0 0 C0.99 0.66 1.98 1.32 3 2 C2.67 3.32 2.34 4.64 2 6 C0.35 5.67 -1.3 5.34 -3 5 C-2.01 3.35 -1.02 1.7 0 0 Z " fill="#E72622" transform="translate(200,293)"/>
<path d="M0 0 C0.99 0 1.98 0 3 0 C2.67 1.65 2.34 3.3 2 5 C1.01 5 0.02 5 -1 5 C-1 1 -1 1 0 0 Z " fill="#D6393F" transform="translate(325,290)"/>
<path d="M0 0 C0.66 0.33 1.32 0.66 2 1 C1.67 1.99 1.34 2.98 1 4 C-3.455 4.495 -3.455 4.495 -8 5 C-5.45378681 2.99940392 -3.01962385 1.20784954 0 0 Z " fill="#D25152" transform="translate(114,77)"/>
<path d="M0 0 C1.39195915 4.17587745 -0.17676781 6.13474776 -2 10 C-2.33 10 -2.66 10 -3 10 C-3 7.69 -3 5.38 -3 3 C-2.01 2.67 -1.02 2.34 0 2 C0 1.34 0 0.68 0 0 Z " fill="#D72931" transform="translate(176,278)"/>
<path d="M0 0 C0.99 0.33 1.98 0.66 3 1 C3.33 3.97 3.66 6.94 4 10 C1.16625119 6.79663178 0.4794463 4.21912747 0 0 Z " fill="#DE6E73" transform="translate(325,280)"/>
<path d="M0 0 C4.35535069 1.16142685 6.64619703 2.07699505 9 6 C6 6 6 6 4 5 C4 4.01 4 3.02 4 2 C2.35 2 0.7 2 -1 2 C-0.67 1.34 -0.34 0.68 0 0 Z " fill="#D86163" transform="translate(195,271)"/>
<path d="M0 0 C2 1 2 1 5 4 C0.545 4.495 0.545 4.495 -4 5 C-2.68 3.35 -1.36 1.7 0 0 Z " fill="#DC5053" transform="translate(97,87)"/>
<path d="M0 0 C2.97 0 5.94 0 9 0 C7.375 1.5625 7.375 1.5625 5 3 C1.75 2.6875 1.75 2.6875 -1 2 C-0.67 1.34 -0.34 0.68 0 0 Z " fill="#DE2B2B" transform="translate(336,73)"/>
<path d="M0 0 C-2.6465335 2.6465335 -5.56221264 3.59941997 -9 5 C-9.33 4.01 -9.66 3.02 -10 2 C-6.49223216 0.39644899 -3.85645121 -0.22036864 0 0 Z " fill="#D14F54" transform="translate(172,123)"/>
<path d="M0 0 C0.66 0.33 1.32 0.66 2 1 C0.515 3.475 0.515 3.475 -1 6 C-2.32 5.34 -3.64 4.68 -5 4 C-3.35 2.68 -1.7 1.36 0 0 Z " fill="#DB585C" transform="translate(104,82)"/>
<path d="M0 0 C1.32 0 2.64 0 4 0 C4 0.66 4 1.32 4 2 C3.34 2 2.68 2 2 2 C2 3.65 2 5.3 2 7 C1.34 6.67 0.68 6.34 0 6 C-0.6875 3.5 -0.6875 3.5 -1 1 C-0.67 0.67 -0.34 0.34 0 0 Z " fill="#DB282D" transform="translate(155,363)"/>
<path d="M0 0 C3.57104439 1.87949705 5.54744301 3.17053157 7 7 C5.35 6.67 3.7 6.34 2 6 C2 4.68 2 3.36 2 2 C1.34 2 0.68 2 0 2 C0 1.34 0 0.68 0 0 Z " fill="#D04F51" transform="translate(320,273)"/>
<path d="M0 0 C0.66 1.65 1.32 3.3 2 5 C1.01 5 0.02 5 -1 5 C-2.6875 3 -2.6875 3 -4 1 C-2 0 -2 0 0 0 Z " fill="#D85259" transform="translate(175,237)"/>
<path d="M0 0 C2.31 0.66 4.62 1.32 7 2 C7 2.66 7 3.32 7 4 C5.35 4 3.7 4 2 4 C1.34 2.68 0.68 1.36 0 0 Z " fill="#CE4A4A" transform="translate(379,75)"/>
<path d="M0 0 C-1 1.5 -1 1.5 -3 3 C-5.71846235 3.27345479 -8.25677199 3.13491285 -11 3 C-7.11595442 0.41063628 -4.5725325 -0.12358196 0 0 Z " fill="#D56E70" transform="translate(127,74)"/>
<path d="M0 0 C0.66 0 1.32 0 2 0 C3.38938077 1.96147874 4.7260411 3.96166576 6 6 C5.01 6 4.02 6 3 6 C2.566875 5.0409375 2.566875 5.0409375 2.125 4.0625 C1.17176549 1.84793921 1.17176549 1.84793921 -1 1 C-0.67 0.67 -0.34 0.34 0 0 Z " fill="#D3545A" transform="translate(331,353)"/>
<path d="M0 0 C-0.33 0.66 -0.66 1.32 -1 2 C-3.97 1.505 -3.97 1.505 -7 1 C-7 1.66 -7 2.32 -7 3 C-7.66 2.67 -8.32 2.34 -9 2 C-8 0 -8 0 -6.1875 -0.6875 C-3.81180233 -1.02688538 -2.26664171 -0.72856341 0 0 Z " fill="#D84547" transform="translate(305,274)"/>
<path d="M0 0 C0.66 0 1.32 0 2 0 C2 0.66 2 1.32 2 2 C2.99 2.33 3.98 2.66 5 3 C4.360625 3.103125 3.72125 3.20625 3.0625 3.3125 C2.381875 3.539375 1.70125 3.76625 1 4 C0.67 4.99 0.34 5.98 0 7 C-0.38133299 5.0085944 -0.71325582 3.00720923 -1 1 C-0.67 0.67 -0.34 0.34 0 0 Z " fill="#D52A2F" transform="translate(201,136)"/>
<path d="" fill="#FFFFFF" transform="translate(0,0)"/>
<path d="" fill="#FFFFFF" transform="translate(0,0)"/>
<path d="" fill="#FFFFFF" transform="translate(0,0)"/>
<path d="" fill="#FFFFFF" transform="translate(0,0)"/>
<path d="" fill="#FFFFFF" transform="translate(0,0)"/>
<path d="" fill="#FFFFFF" transform="translate(0,0)"/>
<path d="" fill="#FFFFFF" transform="translate(0,0)"/>
<path d="" fill="#FFFFFF" transform="translate(0,0)"/>
<path d="" fill="#FFFFFF" transform="translate(0,0)"/>
<path d="" fill="#FFFFFF" transform="translate(0,0)"/>
<path d="" fill="#FFFFFF" transform="translate(0,0)"/>
<path d="" fill="#FFFFFF" transform="translate(0,0)"/>
<path d="" fill="#FFFFFF" transform="translate(0,0)"/>
<path d="" fill="#FFFFFF" transform="translate(0,0)"/>
<path d="" fill="#FFFFFF" transform="translate(0,0)"/>
<path d="" fill="#FFFFFF" transform="translate(0,0)"/>
<path d="" fill="#FFFFFF" transform="translate(0,0)"/>
<path d="" fill="#FFFFFF" transform="translate(0,0)"/>
<path d="" fill="#FFFFFF" transform="translate(0,0)"/>
<path d="" fill="#FFFFFF" transform="translate(0,0)"/>
<path d="" fill="#FFFFFF" transform="translate(0,0)"/>
<path d="" fill="#FFFFFF" transform="translate(0,0)"/>
<path d="" fill="#FFFFFF" transform="translate(0,0)"/>
<path d="" fill="#FFFFFF" transform="translate(0,0)"/>
<path d="" fill="#FFFFFF" transform="translate(0,0)"/>
<path d="" fill="#FFFFFF" transform="translate(0,0)"/>
<path d="" fill="#FFFFFF" transform="translate(0,0)"/>
<path d="" fill="#FFFFFF" transform="translate(0,0)"/>
<path d="" fill="#FFFFFF" transform="translate(0,0)"/>
<path d="" fill="#FFFFFF" transform="translate(0,0)"/>
<path d="" fill="#FFFFFF" transform="translate(0,0)"/>
<path d="" fill="#FFFFFF" transform="translate(0,0)"/>
<path d="" fill="#FFFFFF" transform="translate(0,0)"/>
<path d="" fill="#FFFFFF" transform="translate(0,0)"/>
<path d="" fill="#FFFFFF" transform="translate(0,0)"/>
<path d="" fill="#FFFFFF" transform="translate(0,0)"/>
<path d="" fill="#FFFFFF" transform="translate(0,0)"/>
<path d="" fill="#FFFFFF" transform="translate(0,0)"/>
<path d="" fill="#FFFFFF" transform="translate(0,0)"/>
<path d="" fill="#FFFFFF" transform="translate(0,0)"/>
<path d="" fill="#FFFFFF" transform="translate(0,0)"/>
<path d="" fill="#FFFFFF" transform="translate(0,0)"/>
<path d="" fill="#FFFFFF" transform="translate(0,0)"/>
<path d="" fill="#FFFFFF" transform="translate(0,0)"/>
<path d="" fill="#FFFFFF" transform="translate(0,0)"/>
<path d="" fill="#FFFFFF" transform="translate(0,0)"/>
<path d="" fill="#FFFFFF" transform="translate(0,0)"/>
<path d="" fill="#FFFFFF" transform="translate(0,0)"/>
<path d="" fill="#FFFFFF" transform="translate(0,0)"/>
<path d="" fill="#FFFFFF" transform="translate(0,0)"/>
<path d="" fill="#FFFFFF" transform="translate(0,0)"/>
<path d="" fill="#FFFFFF" transform="translate(0,0)"/>
</svg>
